<svg xmlns="http://www.w3.org/2000/svg" width="1000" height="1300" viewBox="0 0 1000 1300">
<rect x="0" y="0" width="1000" height="1300" rx="0" fill="#f4f5f7" opacity="1"/>
<text x="500.0" y="44" font-family="DejaVu Sans" font-size="26" fill="#1b1f27" text-anchor="middle" font-weight="bold">Soundboard – Verkabelung (ESP32 + DFPlayer Mini)</text>
<text x="500.0" y="70" font-family="DejaVu Sans" font-size="15" fill="#5b6573" text-anchor="middle" font-weight="normal">5×5-Tastenmatrix · Audio über DFPlayer-Endstufe · BUSY-Rückmeldung</text>
<rect x="30" y="96" width="940" height="496" rx="14" fill="#ffffff" opacity="1" stroke="#d2d7df" stroke-width="2"/>
<text x="50" y="130" font-family="DejaVu Sans" font-size="19" fill="#1b1f27" text-anchor="start" font-weight="bold">A · Audio: DFPlayer Mini ↔ ESP32 ↔ Lautsprecher</text>
<rect x="410" y="150" width="170" height="340" rx="14" fill="#2f6f4f" opacity="1"/>
<rect x="461.0" y="164" width="68" height="40" rx="4" fill="#cfd3da" opacity="1"/>
<rect x="440" y="220" width="110" height="150" rx="8" fill="#24573e" opacity="1"/>
<text x="495.0" y="308" font-family="DejaVu Sans" font-size="22" fill="#eef2ee" text-anchor="middle" font-weight="bold">ESP32</text>
<rect x="473.0" y="454" width="44" height="24" rx="4" fill="#1b1b1b" opacity="1"/>
<text x="495.0" y="471" font-family="DejaVu Sans" font-size="11" fill="#cfd3da" text-anchor="middle" font-weight="normal">USB</text>
<circle cx="580" cy="240" r="4.5" fill="#caa23a" stroke="#7a6320" stroke-width="1"/>
<text x="570" y="245" font-family="DejaVu Sans Mono" font-size="13" fill="#eef2ee" text-anchor="end" font-weight="normal">5V</text>
<circle cx="580" cy="286" r="4.5" fill="#caa23a" stroke="#7a6320" stroke-width="1"/>
<text x="570" y="291" font-family="DejaVu Sans Mono" font-size="13" fill="#eef2ee" text-anchor="end" font-weight="normal">GND</text>
<circle cx="580" cy="332" r="4.5" fill="#caa23a" stroke="#7a6320" stroke-width="1"/>
<text x="570" y="337" font-family="DejaVu Sans Mono" font-size="13" fill="#eef2ee" text-anchor="end" font-weight="normal">G23 (TX2)</text>
<circle cx="580" cy="378" r="4.5" fill="#caa23a" stroke="#7a6320" stroke-width="1"/>
<text x="570" y="383" font-family="DejaVu Sans Mono" font-size="13" fill="#eef2ee" text-anchor="end" font-weight="normal">G22 (RX2)</text>
<circle cx="580" cy="424" r="4.5" fill="#caa23a" stroke="#7a6320" stroke-width="1"/>
<text x="570" y="429" font-family="DejaVu Sans Mono" font-size="13" fill="#eef2ee" text-anchor="end" font-weight="normal">G4</text>
<rect x="700" y="150" width="150" height="300" rx="12" fill="#3a4a8c" opacity="1"/>
<text x="775.0" y="176" font-family="DejaVu Sans" font-size="17" fill="#eaecf7" text-anchor="middle" font-weight="bold">DFPlayer</text>
<text x="775.0" y="194" font-family="DejaVu Sans" font-size="14" fill="#c4cae8" text-anchor="middle" font-weight="normal">Mini</text>
<rect x="724" y="208" width="102" height="86" rx="6" fill="#2c3a6e" opacity="1"/>
<text x="775.0" y="256" font-family="DejaVu Sans" font-size="12" fill="#aeb6df" text-anchor="middle" font-weight="normal">microSD</text>
<circle cx="700" cy="330" r="4.5" fill="#caa23a" stroke="#7a6320" stroke-width="1"/>
<text x="712" y="334" font-family="DejaVu Sans Mono" font-size="12" fill="#eaecf7" text-anchor="start" font-weight="normal">VCC</text>
<circle cx="700" cy="356" r="4.5" fill="#caa23a" stroke="#7a6320" stroke-width="1"/>
<text x="712" y="360" font-family="DejaVu Sans Mono" font-size="12" fill="#eaecf7" text-anchor="start" font-weight="normal">RX</text>
<circle cx="700" cy="382" r="4.5" fill="#caa23a" stroke="#7a6320" stroke-width="1"/>
<text x="712" y="386" font-family="DejaVu Sans Mono" font-size="12" fill="#eaecf7" text-anchor="start" font-weight="normal">TX</text>
<circle cx="700" cy="408" r="4.5" fill="#caa23a" stroke="#7a6320" stroke-width="1"/>
<text x="712" y="412" font-family="DejaVu Sans Mono" font-size="12" fill="#eaecf7" text-anchor="start" font-weight="normal">BUSY</text>
<circle cx="700" cy="434" r="4.5" fill="#caa23a" stroke="#7a6320" stroke-width="1"/>
<text x="712" y="438" font-family="DejaVu Sans Mono" font-size="12" fill="#eaecf7" text-anchor="start" font-weight="normal">GND</text>
<circle cx="740" cy="450" r="4.5" fill="#caa23a" stroke="#7a6320" stroke-width="1"/>
<text x="740" y="468" font-family="DejaVu Sans Mono" font-size="11" fill="#3a4a8c" text-anchor="middle" font-weight="normal">SPK1</text>
<circle cx="810" cy="450" r="4.5" fill="#caa23a" stroke="#7a6320" stroke-width="1"/>
<text x="810" y="468" font-family="DejaVu Sans Mono" font-size="11" fill="#3a4a8c" text-anchor="middle" font-weight="normal">SPK2</text>
<circle cx="775.0" cy="520" r="42" fill="#3a3a3a"/>
<circle cx="775.0" cy="520" r="28" fill="#555"/>
<circle cx="775.0" cy="520" r="9" fill="#222"/>
<text x="775.0" y="580" font-family="DejaVu Sans" font-size="12" fill="#5b6573" text-anchor="middle" font-weight="normal">Lautsprecher</text>
<path d="M 580,240 L 612,240 L 612,330 L 700,330" fill="none" stroke="#d23b3b" stroke-width="4" stroke-linecap="round" stroke-linejoin="round"/>
<path d="M 580,332 L 624,332 L 624,356 L 700,356" fill="none" stroke="#2f6fd2" stroke-width="4" stroke-linecap="round" stroke-linejoin="round"/>
<path d="M 580,378 L 636,378 L 636,382 L 700,382" fill="none" stroke="#2e9e4f" stroke-width="4" stroke-linecap="round" stroke-linejoin="round"/>
<path d="M 580,424 L 648,424 L 648,408 L 700,408" fill="none" stroke="#f08a24" stroke-width="4" stroke-linecap="round" stroke-linejoin="round"/>
<path d="M 580,286 L 664,286 L 664,434 L 700,434" fill="none" stroke="#222222" stroke-width="4" stroke-linecap="round" stroke-linejoin="round"/>
<path d="M 740,450 L 740,514 L 757.0,514" fill="none" stroke="#777777" stroke-width="4" stroke-linecap="round" stroke-linejoin="round"/>
<path d="M 810,450 L 810,538 L 793.0,538" fill="none" stroke="#777777" stroke-width="4" stroke-linecap="round" stroke-linejoin="round"/>
<text x="54" y="186" font-family="DejaVu Sans" font-size="15" fill="#1b1f27" text-anchor="start" font-weight="bold">Audio-Verbindungen</text>
<rect x="54" y="205" width="14" height="14" rx="3" fill="#d23b3b"/>
<text x="78" y="218" font-family="DejaVu Sans Mono" font-size="13" fill="#1b1f27" text-anchor="start" font-weight="normal">DFPlayer VCC</text>
<text x="78" y="232" font-family="DejaVu Sans Mono" font-size="12" fill="#5b6573" text-anchor="start" font-weight="normal">→ ESP 5V</text>
<rect x="54" y="251" width="14" height="14" rx="3" fill="#2f6fd2"/>
<text x="78" y="264" font-family="DejaVu Sans Mono" font-size="13" fill="#1b1f27" text-anchor="start" font-weight="normal">DFPlayer RX</text>
<text x="78" y="278" font-family="DejaVu Sans Mono" font-size="12" fill="#5b6573" text-anchor="start" font-weight="normal">→ ESP GPIO23 (TX2)</text>
<rect x="54" y="297" width="14" height="14" rx="3" fill="#2e9e4f"/>
<text x="78" y="310" font-family="DejaVu Sans Mono" font-size="13" fill="#1b1f27" text-anchor="start" font-weight="normal">DFPlayer TX</text>
<text x="78" y="324" font-family="DejaVu Sans Mono" font-size="12" fill="#5b6573" text-anchor="start" font-weight="normal">→ ESP GPIO22 (RX2)</text>
<rect x="54" y="343" width="14" height="14" rx="3" fill="#f08a24"/>
<text x="78" y="356" font-family="DejaVu Sans Mono" font-size="13" fill="#1b1f27" text-anchor="start" font-weight="normal">DFPlayer BUSY</text>
<text x="78" y="370" font-family="DejaVu Sans Mono" font-size="12" fill="#5b6573" text-anchor="start" font-weight="normal">→ ESP GPIO4</text>
<rect x="54" y="389" width="14" height="14" rx="3" fill="#222222"/>
<text x="78" y="402" font-family="DejaVu Sans Mono" font-size="13" fill="#1b1f27" text-anchor="start" font-weight="normal">DFPlayer GND</text>
<text x="78" y="416" font-family="DejaVu Sans Mono" font-size="12" fill="#5b6573" text-anchor="start" font-weight="normal">→ ESP GND</text>
<rect x="54" y="435" width="14" height="14" rx="3" fill="#777777"/>
<text x="78" y="448" font-family="DejaVu Sans Mono" font-size="13" fill="#1b1f27" text-anchor="start" font-weight="normal">DFPlayer SPK1/SPK2</text>
<text x="78" y="462" font-family="DejaVu Sans Mono" font-size="12" fill="#5b6573" text-anchor="start" font-weight="normal">→ Lautsprecher</text>
<text x="54" y="574" font-family="DejaVu Sans" font-size="13" fill="#f08a24" text-anchor="start" font-weight="bold">★ Neu: BUSY (GPIO4) meldet "spielt gerade" – kein Serial-Polling mehr.</text>
<rect x="30" y="612" width="940" height="656" rx="14" fill="#ffffff" opacity="1" stroke="#d2d7df" stroke-width="2"/>
<text x="50" y="646" font-family="DejaVu Sans" font-size="19" fill="#1b1f27" text-anchor="start" font-weight="bold">B · Tastenmatrix 5×5 ↔ ESP32 (24 Tasten A–X + Mode-Taste Y)</text>
<path d="M 235,688 L 235,1184" fill="none" stroke="#7a3fb0" stroke-width="3" stroke-linecap="round" stroke-linejoin="round"/>
<rect x="201" y="662" width="68" height="20" rx="4" fill="#7a3fb0"/>
<text x="235" y="677" font-family="DejaVu Sans Mono" font-size="11" fill="#fff" text-anchor="middle" font-weight="normal">GPIO32</text>
<text x="235" y="1206" font-family="DejaVu Sans" font-size="13" fill="#7a3fb0" text-anchor="middle" font-weight="bold">C1</text>
<path d="M 339,688 L 339,1184" fill="none" stroke="#7a3fb0" stroke-width="3" stroke-linecap="round" stroke-linejoin="round"/>
<rect x="305" y="662" width="68" height="20" rx="4" fill="#7a3fb0"/>
<text x="339" y="677" font-family="DejaVu Sans Mono" font-size="11" fill="#fff" text-anchor="middle" font-weight="normal">GPIO33</text>
<text x="339" y="1206" font-family="DejaVu Sans" font-size="13" fill="#7a3fb0" text-anchor="middle" font-weight="bold">C2</text>
<path d="M 443,688 L 443,1184" fill="none" stroke="#7a3fb0" stroke-width="3" stroke-linecap="round" stroke-linejoin="round"/>
<rect x="409" y="662" width="68" height="20" rx="4" fill="#7a3fb0"/>
<text x="443" y="677" font-family="DejaVu Sans Mono" font-size="11" fill="#fff" text-anchor="middle" font-weight="normal">GPIO25</text>
<text x="443" y="1206" font-family="DejaVu Sans" font-size="13" fill="#7a3fb0" text-anchor="middle" font-weight="bold">C3</text>
<path d="M 547,688 L 547,1184" fill="none" stroke="#7a3fb0" stroke-width="3" stroke-linecap="round" stroke-linejoin="round"/>
<rect x="513" y="662" width="68" height="20" rx="4" fill="#7a3fb0"/>
<text x="547" y="677" font-family="DejaVu Sans Mono" font-size="11" fill="#fff" text-anchor="middle" font-weight="normal">GPIO26</text>
<text x="547" y="1206" font-family="DejaVu Sans" font-size="13" fill="#7a3fb0" text-anchor="middle" font-weight="bold">C4</text>
<path d="M 651,688 L 651,1184" fill="none" stroke="#7a3fb0" stroke-width="3" stroke-linecap="round" stroke-linejoin="round"/>
<rect x="617" y="662" width="68" height="20" rx="4" fill="#7a3fb0"/>
<text x="651" y="677" font-family="DejaVu Sans Mono" font-size="11" fill="#fff" text-anchor="middle" font-weight="normal">GPIO27</text>
<text x="651" y="1206" font-family="DejaVu Sans" font-size="13" fill="#7a3fb0" text-anchor="middle" font-weight="bold">C5</text>
<path d="M 155,728 L 691,728" fill="none" stroke="#8f4814" stroke-width="3" stroke-linecap="round" stroke-linejoin="round"/>
<rect x="83" y="716" width="72" height="22" rx="4" fill="#8f4814"/>
<text x="119" y="732" font-family="DejaVu Sans Mono" font-size="11" fill="#fff" text-anchor="middle" font-weight="normal">GPIO19</text>
<text x="717" y="733" font-family="DejaVu Sans" font-size="13" fill="#8f4814" text-anchor="middle" font-weight="bold">R1</text>
<path d="M 155,832 L 691,832" fill="none" stroke="#8f4814" stroke-width="3" stroke-linecap="round" stroke-linejoin="round"/>
<rect x="83" y="820" width="72" height="22" rx="4" fill="#8f4814"/>
<text x="119" y="836" font-family="DejaVu Sans Mono" font-size="11" fill="#fff" text-anchor="middle" font-weight="normal">GPIO18</text>
<text x="717" y="837" font-family="DejaVu Sans" font-size="13" fill="#8f4814" text-anchor="middle" font-weight="bold">R2</text>
<path d="M 155,936 L 691,936" fill="none" stroke="#8f4814" stroke-width="3" stroke-linecap="round" stroke-linejoin="round"/>
<rect x="83" y="924" width="72" height="22" rx="4" fill="#8f4814"/>
<text x="119" y="940" font-family="DejaVu Sans Mono" font-size="11" fill="#fff" text-anchor="middle" font-weight="normal">GPIO5</text>
<text x="717" y="941" font-family="DejaVu Sans" font-size="13" fill="#8f4814" text-anchor="middle" font-weight="bold">R3</text>
<path d="M 155,1040 L 691,1040" fill="none" stroke="#8f4814" stroke-width="3" stroke-linecap="round" stroke-linejoin="round"/>
<rect x="83" y="1028" width="72" height="22" rx="4" fill="#8f4814"/>
<text x="119" y="1044" font-family="DejaVu Sans Mono" font-size="11" fill="#fff" text-anchor="middle" font-weight="normal">GPIO17</text>
<text x="717" y="1045" font-family="DejaVu Sans" font-size="13" fill="#8f4814" text-anchor="middle" font-weight="bold">R4</text>
<path d="M 155,1144 L 691,1144" fill="none" stroke="#8f4814" stroke-width="3" stroke-linecap="round" stroke-linejoin="round"/>
<rect x="83" y="1132" width="72" height="22" rx="4" fill="#8f4814"/>
<text x="119" y="1148" font-family="DejaVu Sans Mono" font-size="11" fill="#fff" text-anchor="middle" font-weight="normal">GPIO16</text>
<text x="717" y="1149" font-family="DejaVu Sans" font-size="13" fill="#8f4814" text-anchor="middle" font-weight="bold">R5</text>
<circle cx="235" cy="728" r="28" fill="#9a231e"/>
<circle cx="235" cy="728" r="24" fill="#c8302a" stroke="#9a231e" stroke-width="3"/>
<text x="235" y="734" font-family="DejaVu Sans" font-size="18" fill="#fff" text-anchor="middle" font-weight="bold">A</text>
<circle cx="339" cy="728" r="28" fill="#9a231e"/>
<circle cx="339" cy="728" r="24" fill="#c8302a" stroke="#9a231e" stroke-width="3"/>
<text x="339" y="734" font-family="DejaVu Sans" font-size="18" fill="#fff" text-anchor="middle" font-weight="bold">B</text>
<circle cx="443" cy="728" r="28" fill="#9a231e"/>
<circle cx="443" cy="728" r="24" fill="#c8302a" stroke="#9a231e" stroke-width="3"/>
<text x="443" y="734" font-family="DejaVu Sans" font-size="18" fill="#fff" text-anchor="middle" font-weight="bold">C</text>
<circle cx="547" cy="728" r="28" fill="#9a231e"/>
<circle cx="547" cy="728" r="24" fill="#c8302a" stroke="#9a231e" stroke-width="3"/>
<text x="547" y="734" font-family="DejaVu Sans" font-size="18" fill="#fff" text-anchor="middle" font-weight="bold">D</text>
<circle cx="651" cy="728" r="28" fill="#9a231e"/>
<circle cx="651" cy="728" r="24" fill="#c8302a" stroke="#9a231e" stroke-width="3"/>
<text x="651" y="734" font-family="DejaVu Sans" font-size="18" fill="#fff" text-anchor="middle" font-weight="bold">E</text>
<circle cx="235" cy="832" r="28" fill="#9a231e"/>
<circle cx="235" cy="832" r="24" fill="#c8302a" stroke="#9a231e" stroke-width="3"/>
<text x="235" y="838" font-family="DejaVu Sans" font-size="18" fill="#fff" text-anchor="middle" font-weight="bold">F</text>
<circle cx="339" cy="832" r="28" fill="#9a231e"/>
<circle cx="339" cy="832" r="24" fill="#c8302a" stroke="#9a231e" stroke-width="3"/>
<text x="339" y="838" font-family="DejaVu Sans" font-size="18" fill="#fff" text-anchor="middle" font-weight="bold">G</text>
<circle cx="443" cy="832" r="28" fill="#9a231e"/>
<circle cx="443" cy="832" r="24" fill="#c8302a" stroke="#9a231e" stroke-width="3"/>
<text x="443" y="838" font-family="DejaVu Sans" font-size="18" fill="#fff" text-anchor="middle" font-weight="bold">H</text>
<circle cx="547" cy="832" r="28" fill="#9a231e"/>
<circle cx="547" cy="832" r="24" fill="#c8302a" stroke="#9a231e" stroke-width="3"/>
<text x="547" y="838" font-family="DejaVu Sans" font-size="18" fill="#fff" text-anchor="middle" font-weight="bold">I</text>
<circle cx="651" cy="832" r="28" fill="#9a231e"/>
<circle cx="651" cy="832" r="24" fill="#c8302a" stroke="#9a231e" stroke-width="3"/>
<text x="651" y="838" font-family="DejaVu Sans" font-size="18" fill="#fff" text-anchor="middle" font-weight="bold">J</text>
<circle cx="235" cy="936" r="28" fill="#9a231e"/>
<circle cx="235" cy="936" r="24" fill="#c8302a" stroke="#9a231e" stroke-width="3"/>
<text x="235" y="942" font-family="DejaVu Sans" font-size="18" fill="#fff" text-anchor="middle" font-weight="bold">K</text>
<circle cx="339" cy="936" r="28" fill="#9a231e"/>
<circle cx="339" cy="936" r="24" fill="#c8302a" stroke="#9a231e" stroke-width="3"/>
<text x="339" y="942" font-family="DejaVu Sans" font-size="18" fill="#fff" text-anchor="middle" font-weight="bold">L</text>
<circle cx="443" cy="936" r="28" fill="#9a231e"/>
<circle cx="443" cy="936" r="24" fill="#c8302a" stroke="#9a231e" stroke-width="3"/>
<text x="443" y="942" font-family="DejaVu Sans" font-size="18" fill="#fff" text-anchor="middle" font-weight="bold">M</text>
<circle cx="547" cy="936" r="28" fill="#9a231e"/>
<circle cx="547" cy="936" r="24" fill="#c8302a" stroke="#9a231e" stroke-width="3"/>
<text x="547" y="942" font-family="DejaVu Sans" font-size="18" fill="#fff" text-anchor="middle" font-weight="bold">N</text>
<circle cx="651" cy="936" r="28" fill="#9a231e"/>
<circle cx="651" cy="936" r="24" fill="#c8302a" stroke="#9a231e" stroke-width="3"/>
<text x="651" y="942" font-family="DejaVu Sans" font-size="18" fill="#fff" text-anchor="middle" font-weight="bold">O</text>
<circle cx="235" cy="1040" r="28" fill="#9a231e"/>
<circle cx="235" cy="1040" r="24" fill="#c8302a" stroke="#9a231e" stroke-width="3"/>
<text x="235" y="1046" font-family="DejaVu Sans" font-size="18" fill="#fff" text-anchor="middle" font-weight="bold">P</text>
<circle cx="339" cy="1040" r="28" fill="#9a231e"/>
<circle cx="339" cy="1040" r="24" fill="#c8302a" stroke="#9a231e" stroke-width="3"/>
<text x="339" y="1046" font-family="DejaVu Sans" font-size="18" fill="#fff" text-anchor="middle" font-weight="bold">Q</text>
<circle cx="443" cy="1040" r="28" fill="#9a231e"/>
<circle cx="443" cy="1040" r="24" fill="#c8302a" stroke="#9a231e" stroke-width="3"/>
<text x="443" y="1046" font-family="DejaVu Sans" font-size="18" fill="#fff" text-anchor="middle" font-weight="bold">R</text>
<circle cx="547" cy="1040" r="28" fill="#9a231e"/>
<circle cx="547" cy="1040" r="24" fill="#c8302a" stroke="#9a231e" stroke-width="3"/>
<text x="547" y="1046" font-family="DejaVu Sans" font-size="18" fill="#fff" text-anchor="middle" font-weight="bold">S</text>
<circle cx="651" cy="1040" r="28" fill="#9a231e"/>
<circle cx="651" cy="1040" r="24" fill="#c8302a" stroke="#9a231e" stroke-width="3"/>
<text x="651" y="1046" font-family="DejaVu Sans" font-size="18" fill="#fff" text-anchor="middle" font-weight="bold">T</text>
<circle cx="235" cy="1144" r="28" fill="#9a231e"/>
<circle cx="235" cy="1144" r="24" fill="#c8302a" stroke="#9a231e" stroke-width="3"/>
<text x="235" y="1150" font-family="DejaVu Sans" font-size="18" fill="#fff" text-anchor="middle" font-weight="bold">U</text>
<circle cx="339" cy="1144" r="28" fill="#9a231e"/>
<circle cx="339" cy="1144" r="24" fill="#c8302a" stroke="#9a231e" stroke-width="3"/>
<text x="339" y="1150" font-family="DejaVu Sans" font-size="18" fill="#fff" text-anchor="middle" font-weight="bold">V</text>
<circle cx="443" cy="1144" r="28" fill="#9a231e"/>
<circle cx="443" cy="1144" r="24" fill="#c8302a" stroke="#9a231e" stroke-width="3"/>
<text x="443" y="1150" font-family="DejaVu Sans" font-size="18" fill="#fff" text-anchor="middle" font-weight="bold">W</text>
<circle cx="547" cy="1144" r="28" fill="#9a231e"/>
<circle cx="547" cy="1144" r="24" fill="#c8302a" stroke="#9a231e" stroke-width="3"/>
<text x="547" y="1150" font-family="DejaVu Sans" font-size="18" fill="#fff" text-anchor="middle" font-weight="bold">X</text>
<circle cx="651" cy="1144" r="28" fill="#9aa0ad"/>
<circle cx="651" cy="1144" r="24" fill="#d9dde3" stroke="#9aa0ad" stroke-width="3"/>
<text x="651" y="1150" font-family="DejaVu Sans" font-size="18" fill="#1b1f27" text-anchor="middle" font-weight="bold">Y</text>
<text x="651" y="1186" font-family="DejaVu Sans" font-size="10" fill="#5b6573" text-anchor="middle" font-weight="bold">MODE</text>
<text x="54" y="1252" font-family="DejaVu Sans" font-size="13" fill="#8f4814" text-anchor="start" font-weight="bold">Zeilen (R1–R5):</text>
<text x="200" y="1252" font-family="DejaVu Sans Mono" font-size="13" fill="#1b1f27" text-anchor="start" font-weight="normal">GPIO 19 · 18 · 5 · 17 · 16</text>
<text x="500" y="1252" font-family="DejaVu Sans" font-size="13" fill="#7a3fb0" text-anchor="start" font-weight="bold">Spalten (C1–C5):</text>
<text x="670" y="1252" font-family="DejaVu Sans Mono" font-size="13" fill="#1b1f27" text-anchor="start" font-weight="normal">GPIO 32 · 33 · 25 · 26 · 27</text>
</svg>
